<svg width="0" height="0" class="hidden">
    <symbol fill="none" xmlns="http://www.w3.org/2000/svg" viewBox="0 0 42 41" id="facebook-icon">
        <path d="M35.7304 4.48291H6.27131C5.56285 4.48291 4.99048 5.05528 4.99048 5.76374V35.2229C4.99048 35.9313 5.56285 36.5037 6.27131 36.5037H35.7304C36.4389 36.5037 37.0113 35.9313 37.0113 35.2229V5.76374C37.0113 5.05528 36.4389 4.48291 35.7304 4.48291ZM32.032 13.829H29.4744C27.4691 13.829 27.0808 14.7816 27.0808 16.1825V19.2685H31.8679L31.2435 24.0996H27.0808V36.5037H22.0896V24.1036H17.9149V19.2685H22.0896V15.7062C22.0896 11.5715 24.6152 9.31805 28.3056 9.31805C30.0748 9.31805 31.5917 9.45013 32.036 9.51017V13.829H32.032Z" fill="#FF5722"></path>
    </symbol>
    <symbol fill="none" xmlns="http://www.w3.org/2000/svg" viewBox="0 0 42 41" id="linkdin-icon">
        <path d="M35.7182 4.48291H6.2591C5.55064 4.48291 4.97827 5.05528 4.97827 5.76374V35.2229C4.97827 35.9313 5.55064 36.5037 6.2591 36.5037H35.7182C36.4267 36.5037 36.9991 35.9313 36.9991 35.2229V5.76374C36.9991 5.05528 36.4267 4.48291 35.7182 4.48291ZM14.4764 31.7686H9.72535V16.4867H14.4764V31.7686ZM12.1029 14.3973C11.5582 14.3973 11.0258 14.2358 10.573 13.9332C10.1201 13.6307 9.76715 13.2006 9.55873 12.6974C9.3503 12.1942 9.29577 11.6405 9.40202 11.1063C9.50828 10.5721 9.77055 10.0815 10.1557 9.69634C10.5408 9.31121 11.0315 9.04894 11.5657 8.94268C12.0998 8.83643 12.6535 8.89096 13.1567 9.09939C13.6599 9.30782 14.09 9.66078 14.3926 10.1136C14.6952 10.5665 14.8567 11.0989 14.8567 11.6436C14.8527 13.1645 13.6199 14.3973 12.1029 14.3973ZM32.264 31.7686H27.5169V24.3358C27.5169 22.5626 27.4849 20.2852 25.0473 20.2852C22.5777 20.2852 22.1974 22.2144 22.1974 24.2077V31.7686H17.4544V16.4867H22.0093V18.5761H22.0734C22.7058 17.3753 24.2548 16.1065 26.5683 16.1065C31.3794 16.1065 32.264 19.2725 32.264 23.3872V31.7686Z" fill="#FF5722"></path>
    </symbol>
    <symbol fill="none" xmlns="http://www.w3.org/2000/svg" viewBox="0 0 28 23" id="mail-icon">
        <g clip-path="url(#clip0_20_1822)">
            <path d="M25.8125 1.60156H1.4375C0.918945 1.60156 0.5 2.02051 0.5 2.53906V21.2891C0.5 21.8076 0.918945 22.2266 1.4375 22.2266H25.8125C26.3311 22.2266 26.75 21.8076 26.75 21.2891V2.53906C26.75 2.02051 26.3311 1.60156 25.8125 1.60156ZM24.6406 4.84766V20.1172H2.60938V4.84766L1.80078 4.21777L2.95215 2.73828L4.20605 3.71387H23.0469L24.3008 2.73828L25.4521 4.21777L24.6406 4.84766ZM23.0469 3.71094L13.625 11.0352L4.20312 3.71094L2.94922 2.73535L1.79785 4.21484L2.60645 4.84473L12.6143 12.626C12.9021 12.8496 13.2561 12.9709 13.6206 12.9709C13.9851 12.9709 14.3391 12.8496 14.627 12.626L24.6406 4.84766L25.4492 4.21777L24.2979 2.73828L23.0469 3.71094Z" fill="#FF5722"></path>
        </g>
        <defs>
            <clipPath id="clip0_20_1822">
                <rect width="27" height="22" fill="white" transform="translate(0.5 0.914062)"></rect>
            </clipPath>
        </defs>
    </symbol>
    <symbol fill="none" xmlns="http://www.w3.org/2000/svg" viewBox="0 0 23 28" id="map-icon">
        <g clip-path="url(#clip0_20_1810)">
            <path d="M11.4999 17.0859C14.4553 17.0859 16.8588 14.6893 16.8588 11.7422C16.8588 8.79511 14.4553 6.39844 11.4999 6.39844C8.54438 6.39844 6.14088 8.79511 6.14088 11.7422C6.14088 14.6893 8.54438 17.0859 11.4999 17.0859ZM11.4999 9.07031C12.9776 9.07031 14.1793 10.2686 14.1793 11.7422C14.1793 13.2157 12.9776 14.4141 11.4999 14.4141C10.0221 14.4141 8.82037 13.2157 8.82037 11.7422C8.82037 10.2686 10.0221 9.07031 11.4999 9.07031Z" fill="#FF5722"></path>
            <path d="M10.4412 27.525C10.6679 27.6864 10.9396 27.7732 11.2182 27.7732C11.4969 27.7732 11.7685 27.6864 11.9953 27.525C12.4026 27.2377 21.975 20.3456 21.9362 11.7422C21.9362 5.84937 17.1278 1.05469 11.2182 1.05469C5.30861 1.05469 0.500271 5.84937 0.500271 11.7355C0.461418 20.3456 10.0339 27.2377 10.4412 27.525ZM11.2182 3.72656C15.6514 3.72656 19.2567 7.32157 19.2567 11.7489C19.2848 17.6778 13.3779 23.0015 11.2182 24.7475C9.05989 23.0001 3.15162 17.6751 3.17976 11.7422C3.17976 7.32157 6.78501 3.72656 11.2182 3.72656Z" fill="#FF5722"></path>
        </g>
        <defs>
            <clipPath id="clip0_20_1810">
                <rect width="22" height="27" fill="white" transform="translate(0.5 0.914062)"></rect>
            </clipPath>
        </defs>
    </symbol>
    <symbol fill="none" xmlns="http://www.w3.org/2000/svg" viewBox="0 0 16 28" id="phone-icon">
        <g clip-path="url(#clip0_20_1816)">
            <path d="M12.2223 1.67505H3.33346C1.48901 1.67505 0.00012207 3.22689 0.00012207 5.14931V23.6787C0.00012207 25.6012 1.48901 27.153 3.33346 27.153H12.2223C14.0668 27.153 15.5557 25.6012 15.5557 23.6787V5.14931C15.5557 3.22689 14.0668 1.67505 12.2223 1.67505ZM10.0001 24.8368H5.55568V23.6787H10.0001V24.8368ZM13.6112 21.3625H1.94457V5.14931H13.6112V21.3625Z" fill="#FF5722"></path>
        </g>
        <defs>
            <clipPath id="clip0_20_1816">
                <rect width="16" height="27" fill="white" transform="translate(0 0.914062)"></rect>
            </clipPath>
        </defs>
    </symbol>
    <symbol fill="none" xmlns="http://www.w3.org/2000/svg" viewBox="0 0 42 41" id="twitter-icon">
        <path d="M37.6651 10.1785C36.4403 10.7068 35.1074 11.087 33.7346 11.2351C35.1599 10.3883 36.2273 9.05052 36.7365 7.4727C35.399 8.26837 33.9337 8.82631 32.4057 9.12177C31.7671 8.43903 30.9947 7.89514 30.1366 7.52396C29.2786 7.15279 28.3533 6.96231 27.4185 6.96437C23.636 6.96437 20.594 10.0304 20.594 13.7928C20.594 14.3211 20.6581 14.8495 20.7621 15.3578C15.0985 15.0616 10.0472 12.3559 6.68901 8.21318C6.07711 9.25832 5.75646 10.4483 5.76041 11.6594C5.76041 14.029 6.96519 16.1183 8.80238 17.3471C7.71969 17.3045 6.66236 17.0069 5.71638 16.4785V16.5626C5.71638 19.8808 8.0619 22.6305 11.1879 23.2629C10.601 23.4154 9.99718 23.4934 9.39076 23.4951C8.94647 23.4951 8.5262 23.4511 8.10192 23.391C8.96649 26.0968 11.4841 28.0621 14.4821 28.1261C12.1365 29.9633 9.19864 31.044 6.00857 31.044C5.4362 31.044 4.90785 31.024 4.3595 30.9599C7.38546 32.9012 10.9758 34.0219 14.8423 34.0219C27.3944 34.0219 34.2629 23.6232 34.2629 14.5973C34.2629 14.3011 34.2629 14.0049 34.2429 13.7087C35.5717 12.7361 36.7365 11.5313 37.6651 10.1785Z" fill="#FF5722"></path>
    </symbol>
</svg>