<svg width="42" height="41" viewBox="0 0 42 41" fill="none" xmlns="http://www.w3.org/2000/svg">
<path d="M37.6651 10.1785C36.4403 10.7068 35.1074 11.087 33.7346 11.2351C35.1599 10.3883 36.2273 9.05052 36.7365 7.4727C35.399 8.26837 33.9337 8.82631 32.4057 9.12177C31.7671 8.43903 30.9947 7.89514 30.1366 7.52396C29.2786 7.15279 28.3533 6.96231 27.4185 6.96437C23.636 6.96437 20.594 10.0304 20.594 13.7928C20.594 14.3211 20.6581 14.8495 20.7621 15.3578C15.0985 15.0616 10.0472 12.3559 6.68901 8.21318C6.07711 9.25832 5.75646 10.4483 5.76041 11.6594C5.76041 14.029 6.96519 16.1183 8.80238 17.3471C7.71969 17.3045 6.66236 17.0069 5.71638 16.4785V16.5626C5.71638 19.8808 8.0619 22.6305 11.1879 23.2629C10.601 23.4154 9.99718 23.4934 9.39076 23.4951C8.94647 23.4951 8.5262 23.4511 8.10192 23.391C8.96649 26.0968 11.4841 28.0621 14.4821 28.1261C12.1365 29.9633 9.19864 31.044 6.00857 31.044C5.4362 31.044 4.90785 31.024 4.3595 30.9599C7.38546 32.9012 10.9758 34.0219 14.8423 34.0219C27.3944 34.0219 34.2629 23.6232 34.2629 14.5973C34.2629 14.3011 34.2629 14.0049 34.2429 13.7087C35.5717 12.7361 36.7365 11.5313 37.6651 10.1785Z" fill="#FF5722"/>
</svg>
